<svg fill="none" height="50" width="50" xmlns="http://www.w3.org/2000/svg" viewBox="0 0 50 50">
  <!-- Green Circle -->
  <circle cx="25" cy="25" r="24" fill="#25c800" />

  <!-- Original Icon -->
  <path d="m18.8906 12.846c-.3535 1.343-2.0239 2.292-5.3649 4.1901-3.2297 1.8348-4.8445 2.7523-6.14587 2.3835-.53803-.1525-1.02824-.442-1.42359-.8409-.95624-.9648-.95624-2.8361-.95624-6.5787s0-5.6139.95624-6.57868c.39535-.39887.88556-.68844 1.42359-.8409 1.30137-.36877 2.91617.54865 6.14587 2.38351 3.341 1.89804 5.0114 2.84707 5.3649 4.19007.1459.5544.1459 1.1376 0 1.692z" 
        stroke="#FFFFFF" stroke-linejoin="round" stroke-width="1.5" transform="translate(12, 12)"/>
</svg>
